<svg width="491" height="483" viewBox="0 0 491 483" fill="none" xmlns="http://www.w3.org/2000/svg">
<g clip-path="url(#clip0_43_38)">
<path d="M72.5238 103.656C58.2339 110.876 40.8075 105.19 33.6183 90.9619C26.0222 75.9283 27.0272 45.7648 39.969 39.2257C52.9108 32.6865 77.7893 49.7717 85.3854 64.8054C92.5746 79.0336 86.8137 96.4353 72.5238 103.656ZM43.4576 58.0197C43.7311 56.7189 42.8978 55.4381 41.5946 55.1699C40.2913 54.9016 39.0044 55.7372 38.7309 57.0381L41.0942 57.5289C38.7309 57.0381 38.7309 57.0381 38.7309 57.0381L38.7242 57.0583L38.7108 57.0988L38.6842 57.247C38.6642 57.375 38.6242 57.5638 38.591 57.7996C38.5112 58.278 38.4117 58.9517 38.2991 59.8006C38.0873 61.4915 37.8907 63.8823 37.891 66.6961C37.9116 72.2967 38.7601 79.7031 42.2462 86.6025C42.843 87.7837 44.302 88.2597 45.4883 87.6603C46.6746 87.0609 47.1569 85.604 46.5601 84.4228C43.5352 78.4362 42.7293 71.8507 42.7232 66.6809C42.7101 64.1095 42.9071 61.9206 43.0922 60.378C43.1781 59.61 43.2778 59.0036 43.3443 58.5993C43.3775 58.3972 43.4042 58.2489 43.4242 58.1546L43.4374 58.0468L43.4441 58.0265L43.4576 58.0197Z" fill="black" fill-opacity="0.04"/>
</g>
<path d="M89.5689 295.186C91.241 294.705 93.0325 295.171 94.2567 296.404L101.333 303.533L97.3769 304.721C88.7179 307.217 82.7313 310.676 78.0286 314.857C73.3706 318.992 70.0862 323.744 66.8166 328.526L66.4733 329.023C60.0686 338.422 53.1115 348.633 34.8679 357.821L29.6576 360.453L25.4027 356.152C24.3129 355.054 23.8202 353.505 24.0591 351.971C24.298 350.437 25.2684 349.129 26.6419 348.437C44.3182 339.55 51.0065 329.745 57.3365 320.466L57.6799 319.955C60.9345 315.172 64.3832 310.195 69.28 305.834C74.2664 301.397 80.5964 297.773 89.5689 295.186V295.186ZM33.2257 364.032L37.0177 362.122C56.3512 352.392 63.8756 341.354 70.4295 331.745L70.758 331.248C74.0574 326.421 77.0432 322.15 81.1936 318.451C85.2991 314.796 90.6588 311.653 98.7057 309.337L98.7355 309.322L105.17 307.382L108.604 310.841C109.798 312.044 110.276 313.804 109.843 315.458C109.41 317.112 108.156 318.406 106.529 318.872C98.7803 321.097 93.7491 324.09 89.9421 327.474C86.0456 330.933 83.209 334.978 79.8947 339.82L79.5663 340.301C72.9377 350.031 65.1296 361.475 45.2438 371.491C43.4075 372.423 41.183 372.047 39.7349 370.589L33.2257 364.032Z" fill="black" fill-opacity="0.04"/>
<path d="M275.62 314.102C275.053 313.21 275.016 312.087 275.524 311.162L278.459 305.816L279.831 307.915C282.773 312.529 285.817 315.421 289.06 317.442C292.269 319.444 295.601 320.54 298.948 321.622L299.296 321.736C305.871 323.851 313.013 326.148 321.5 335.193L323.928 337.775L322.155 340.993C321.703 341.816 320.885 342.369 319.951 342.494C319.017 342.618 318.088 342.278 317.449 341.597C309.235 332.83 302.375 330.62 295.883 328.528L295.526 328.416C292.182 327.343 288.69 326.19 285.308 324.088C281.868 321.946 278.669 318.882 275.62 314.102V314.102ZM325.4 335.082L323.636 333.202C314.646 323.615 306.924 321.13 300.201 318.965L299.856 318.859C296.477 317.767 293.477 316.762 290.609 314.981C287.775 313.218 285.023 310.636 282.291 306.348L282.278 306.333L280.042 302.919L281.466 300.325C281.961 299.423 282.904 298.842 283.942 298.81C284.98 298.778 285.948 299.286 286.5 300.153C289.127 304.283 291.735 306.699 294.36 308.335C297.044 310.009 299.888 310.966 303.277 312.064L303.614 312.173C310.42 314.361 318.427 316.941 327.678 326.801C328.537 327.71 328.7 329.07 328.099 330.164L325.4 335.082Z" fill="black" fill-opacity="0.04"/>
<g clip-path="url(#clip1_43_38)">
<path d="M259.774 424.157C257.685 425.38 255.01 424.681 253.786 422.591C253.642 422.345 253.531 422.096 253.439 421.819C252.531 418.691 247.482 397.894 270.479 384.429C293.477 370.964 309.142 385.545 311.425 387.868C311.634 388.077 311.784 388.303 311.929 388.549C313.152 390.639 312.453 393.314 310.363 394.537L259.774 424.157ZM263.238 405.398C262.57 404.256 261.088 403.869 259.946 404.538C258.804 405.206 258.417 406.688 259.085 407.83C259.754 408.972 261.236 409.359 262.378 408.691C263.52 408.022 263.907 406.541 263.238 405.398ZM295.602 389.238C296.744 388.569 297.131 387.088 296.463 385.946C295.794 384.804 294.312 384.416 293.17 385.085C292.028 385.754 291.641 387.235 292.309 388.377C292.978 389.519 294.46 389.907 295.602 389.238ZM277.419 391.519C276.75 390.377 275.269 389.99 274.127 390.658C272.984 391.327 272.597 392.809 273.266 393.951C273.935 395.093 275.416 395.48 276.558 394.811C277.7 394.143 278.088 392.661 277.419 391.519ZM260 437.966C257.986 434.527 259.143 430.103 262.582 428.09L312.418 398.91C315.858 396.897 320.282 398.053 322.295 401.493C324.309 404.932 323.152 409.356 319.713 411.37L269.877 440.549C266.438 442.562 262.014 441.406 260 437.966ZM269.371 449.21C268.703 448.068 269.09 446.586 270.232 445.917L324.221 414.307C325.363 413.638 326.845 414.025 327.514 415.167L328.729 417.244C331.412 421.825 329.868 427.731 325.286 430.413L283.756 454.729C279.175 457.411 273.269 455.867 270.587 451.286L269.371 449.21Z" fill="black" fill-opacity="0.04"/>
</g>
<g clip-path="url(#clip2_43_38)">
<path d="M42.6822 159.124C38.6268 157.45 36.7039 152.824 38.3778 148.769C38.5753 148.29 38.8128 147.858 39.1111 147.421C42.6295 142.682 67.1027 112.602 111.737 131.025C156.372 149.449 152.503 188.033 151.654 193.874C151.583 194.405 151.421 194.868 151.223 195.347C149.549 199.402 144.923 201.325 140.868 199.651L42.6822 159.124ZM73.5447 143.562C74.4597 141.345 73.3946 138.783 71.178 137.868C68.9614 136.953 66.3993 138.018 65.4843 140.235C64.5694 142.452 65.6344 145.014 67.851 145.929C70.0676 146.844 72.6298 145.779 73.5447 143.562ZM132.334 172.545C134.551 173.46 137.113 172.395 138.028 170.178C138.943 167.962 137.878 165.399 135.661 164.484C133.445 163.57 130.882 164.635 129.968 166.851C129.053 169.068 130.118 171.63 132.334 172.545ZM109.113 148.81C110.028 146.593 108.963 144.031 106.747 143.116C104.53 142.201 101.968 143.266 101.053 145.483C100.138 147.699 101.203 150.261 103.42 151.176C105.636 152.091 108.198 151.026 109.113 148.81ZM23.0045 174.586C25.7597 167.911 33.4106 164.731 40.0856 167.486L136.81 207.41C143.485 210.166 146.666 217.816 143.911 224.491C141.155 231.166 133.504 234.347 126.829 231.592L30.1046 191.667C23.4296 188.912 20.2493 181.261 23.0045 174.586ZM17.0537 200.431C17.9686 198.214 20.5308 197.149 22.7474 198.064L127.533 241.315C129.749 242.23 130.814 244.793 129.899 247.009L128.236 251.039C124.566 259.931 114.353 264.176 105.461 260.506L24.8569 227.236C15.9653 223.566 11.72 213.353 15.3902 204.461L17.0537 200.431Z" fill="black" fill-opacity="0.04"/>
</g>
<g clip-path="url(#clip3_43_38)">
<path d="M232.988 18.9444C232.652 18.2159 232.278 17.511 231.856 16.8167C225.654 6.5953 212.293 3.35637 202.027 9.58563C191.762 15.8149 188.465 29.1617 194.668 39.3831C195.089 40.0774 195.541 40.7353 196.032 41.3697L195.916 41.4402C192.494 43.5166 191.395 47.9656 193.463 51.3727C195.53 54.7798 199.984 55.8595 203.406 53.7831L210.314 49.5911L233.686 35.4087L240.594 31.2167C244.016 29.1403 245.115 24.6914 243.048 21.2842C240.98 17.8771 236.527 16.7974 233.105 18.8739L232.988 18.9444ZM207.968 56.6437L237.861 75.3934C239.116 76.1801 240.694 76.1899 241.972 75.4141C243.251 74.6384 243.971 73.2339 243.853 71.7577L241.025 36.5847L207.968 56.6437Z" fill="black" fill-opacity="0.04"/>
</g>
<g clip-path="url(#clip4_43_38)">
<path d="M140.461 409.491C140.886 408.811 141.269 408.111 141.619 407.377C146.761 396.584 142.137 383.636 131.297 378.472C120.456 373.308 107.489 377.875 102.347 388.669C101.998 389.402 101.696 390.141 101.435 390.9L101.312 390.842C97.6988 389.12 93.3764 390.643 91.6624 394.241C89.9484 397.838 91.4896 402.154 95.1031 403.876L102.398 407.351L127.079 419.109L134.375 422.584C137.988 424.305 142.31 422.783 144.024 419.185C145.738 415.587 144.197 411.271 140.584 409.55L140.461 409.491ZM95.2151 409.26L95.9424 444.539C95.9732 446.019 96.831 447.344 98.181 447.987C99.5309 448.63 101.1 448.462 102.269 447.553L130.123 425.889L95.2151 409.26Z" fill="black" fill-opacity="0.04"/>
</g>
<g clip-path="url(#clip5_43_38)">
<path d="M230.701 218.311C231.768 219.016 232.503 220.114 232.759 221.364L233.902 226.948C234.427 229.511 232.64 231.971 230.713 233.745C230.181 234.223 229.708 234.775 229.294 235.403C226.552 239.557 227.699 245.162 231.854 247.905C236.008 250.647 241.613 249.499 244.355 245.345C244.877 244.554 246.065 244.311 246.856 244.833C251.01 247.575 256.615 246.428 259.357 242.273C262.1 238.119 260.952 232.514 256.798 229.771C256.17 229.357 255.518 229.035 254.829 228.796C252.36 227.923 249.741 226.375 249.225 223.8L248.082 218.215C247.826 216.965 248.07 215.667 248.774 214.6L256.164 203.404C256.686 202.614 257.154 201.823 257.572 201C258.407 199.407 256.985 197.657 255.203 197.49C252.516 197.248 249.859 196.359 247.449 194.768C239.68 189.64 237.542 179.201 242.671 171.432C243.334 170.428 244.072 169.527 244.894 168.719C246.177 167.457 246.15 165.205 244.508 164.499C232.973 159.534 219.163 163.393 211.997 174.25C203.944 186.449 207.305 202.868 219.505 210.921L230.701 218.311Z" fill="black" fill-opacity="0.04"/>
</g>
<g clip-path="url(#clip6_43_38)">
<path d="M435.464 267.106C431.066 258.545 413.591 235.06 396.468 243.857C391.746 246.283 389.879 252.094 392.305 256.816L368.761 268.911C365.217 270.732 363.818 275.086 365.639 278.631L385.431 317.157C387.252 320.702 391.606 322.1 395.151 320.279L418.694 308.184C421.12 312.906 426.932 314.773 431.654 312.347C448.777 303.551 439.863 275.668 435.464 267.106Z" fill="black" fill-opacity="0.04"/>
</g>
<g clip-path="url(#clip7_43_38)">
<path d="M179.8 106.297C176.238 108.572 166.69 117.179 171.241 124.302C172.496 126.267 175.113 126.844 177.078 125.589L183.335 135.384C184.277 136.859 186.238 137.291 187.713 136.349L203.741 126.11C205.216 125.168 205.648 123.207 204.706 121.732L198.449 111.937C200.413 110.682 200.99 108.065 199.735 106.1C195.185 98.9766 183.362 104.021 179.8 106.297Z" fill="black" fill-opacity="0.04"/>
</g>
<g clip-path="url(#clip8_43_38)">
<path d="M411.521 4.13538C408.092 3.89476 405.22 6.24085 404.378 9.35394L402.603 16.0313C402.678 16.0313 402.768 16.0313 402.844 16.0313C429.418 16.0313 450.969 37.5823 450.969 64.1563C450.969 64.2315 450.969 64.3217 450.969 64.3969L457.646 62.6223C460.774 61.7951 463.105 58.9076 462.865 55.4787C460.97 27.9873 439.013 6.03031 411.521 4.13538ZM446.126 65.6903C446.141 65.1789 446.156 64.6676 446.156 64.1563C446.156 40.2291 426.771 20.8438 402.844 20.8438C402.332 20.8438 401.821 20.8588 401.31 20.8739L386.075 77.9772C385.85 78.8043 386.09 79.6916 386.692 80.2932C387.293 80.8948 388.181 81.1354 389.008 80.9098L446.126 65.6903ZM412.469 44.9063C409.807 44.9063 407.656 42.7557 407.656 40.0938C407.656 37.4319 409.807 35.2813 412.469 35.2813C415.131 35.2813 417.281 37.4319 417.281 40.0938C417.281 42.7557 415.131 44.9063 412.469 44.9063ZM431.719 54.5313C431.719 57.1932 429.568 59.3438 426.906 59.3438C424.244 59.3438 422.094 57.1932 422.094 54.5313C422.094 51.8694 424.244 49.7188 426.906 49.7188C429.568 49.7188 431.719 51.8694 431.719 54.5313ZM410.062 61.75C410.062 64.4119 407.912 66.5625 405.25 66.5625C402.588 66.5625 400.437 64.4119 400.437 61.75C400.437 59.0881 402.588 56.9375 405.25 56.9375C407.912 56.9375 410.062 59.0881 410.062 61.75Z" fill="black" fill-opacity="0.04"/>
</g>
<g clip-path="url(#clip9_43_38)">
<path d="M218.234 331.732C219.329 330.407 219.21 328.556 218.189 327.309L215.989 324.645C215.967 324.676 215.941 324.712 215.919 324.743C208.191 335.552 193.159 338.051 182.35 330.324C182.319 330.302 182.282 330.276 182.252 330.254L181.032 333.486C180.459 334.999 180.955 336.787 182.42 337.686C194.153 344.909 209.469 342.363 218.234 331.732ZM183.134 327.908C183.337 328.063 183.541 328.218 183.749 328.366C193.481 335.324 207.003 333.076 213.961 323.344C214.11 323.136 214.252 322.923 214.395 322.711L195.598 299.909C195.327 299.577 194.896 299.417 194.477 299.487C194.057 299.557 193.701 299.847 193.552 300.249L183.134 327.908ZM201.375 320.262C202.149 319.179 203.649 318.929 204.732 319.703C205.815 320.478 206.064 321.978 205.29 323.06C204.516 324.143 203.016 324.393 201.933 323.618C200.85 322.844 200.601 321.344 201.375 320.262ZM191.862 325.293C190.78 324.519 190.53 323.019 191.304 321.936C192.078 320.853 193.578 320.604 194.661 321.378C195.744 322.152 195.993 323.652 195.219 324.735C194.445 325.817 192.945 326.067 191.862 325.293ZM195.223 314.385C194.141 313.611 193.891 312.111 194.665 311.028C195.439 309.945 196.939 309.696 198.022 310.47C199.105 311.244 199.354 312.744 198.58 313.827C197.806 314.91 196.306 315.159 195.223 314.385Z" fill="black" fill-opacity="0.04"/>
</g>
<g clip-path="url(#clip10_43_38)">
<path d="M396.064 385.509C394.198 386.563 393.51 388.77 394.143 390.679L395.515 394.761C395.554 394.735 395.601 394.704 395.64 394.678C409.46 385.545 428.075 389.345 437.209 403.165C437.235 403.204 437.266 403.251 437.292 403.29L440.154 400.072C441.497 398.567 441.716 396.264 440.413 394.563C429.978 380.918 411.012 377.046 396.064 385.509ZM435.218 405.627C435.05 405.356 434.882 405.085 434.706 404.819C426.482 392.376 409.737 388.957 397.294 397.181C397.028 397.357 396.767 397.541 396.507 397.724L408.211 432.657C408.378 433.165 408.808 433.544 409.328 433.65C409.847 433.756 410.391 433.576 410.744 433.175L435.218 405.627ZM410.57 406.387C409.186 407.302 407.328 406.923 406.413 405.538C405.498 404.154 405.878 402.296 407.262 401.381C408.646 400.466 410.504 400.846 411.419 402.23C412.334 403.614 411.955 405.472 410.57 406.387ZM423.89 404.776C424.804 406.16 424.425 408.018 423.041 408.933C421.657 409.848 419.799 409.468 418.884 408.084C417.969 406.7 418.348 404.842 419.733 403.927C421.117 403.012 422.975 403.392 423.89 404.776ZM415.108 415.974C416.023 417.358 415.644 419.216 414.26 420.131C412.875 421.045 411.018 420.666 410.103 419.282C409.188 417.898 409.567 416.04 410.951 415.125C412.336 414.21 414.193 414.589 415.108 415.974Z" fill="black" fill-opacity="0.04"/>
</g>
<path d="M355.829 201.209C334.392 188.206 327.505 160.338 340.452 138.993C354.133 116.44 395.046 92.777 414.46 104.554C433.875 116.331 431.792 163.548 418.111 186.101C405.164 207.446 377.267 214.213 355.829 201.209ZM392.379 124.765C394.334 124.051 395.345 121.882 394.622 119.928C393.898 117.974 391.721 116.957 389.766 117.671L391.072 121.218C389.766 117.671 389.766 117.671 389.766 117.671L389.734 117.679L389.669 117.695L389.45 117.782C389.263 117.862 388.979 117.965 388.638 118.117C387.936 118.407 386.959 118.833 385.737 119.387C383.315 120.507 379.975 122.227 376.237 124.56C368.812 129.229 359.674 136.494 353.395 146.845C352.321 148.617 352.897 150.95 354.677 152.029C356.457 153.109 358.792 152.542 359.867 150.77C365.315 141.789 373.397 135.261 380.262 130.968C383.668 128.819 386.739 127.267 388.943 126.234C390.034 125.712 390.923 125.342 391.515 125.095C391.811 124.972 392.03 124.884 392.172 124.833L392.326 124.761L392.359 124.753L392.379 124.765Z" fill="black" fill-opacity="0.04"/>
<defs>
<clipPath id="clip0_43_38">
<rect width="58" height="77" fill="white" transform="translate(13 50.1565) rotate(-26.8063)"/>
</clipPath>
<clipPath id="clip1_43_38">
<rect width="77" height="77" fill="white" transform="translate(234.823 399.729) rotate(-30.3489)"/>
</clipPath>
<clipPath id="clip2_43_38">
<rect width="139.521" height="139.521" fill="white" transform="translate(50.5811 96.3489) rotate(22.4289)"/>
</clipPath>
<clipPath id="clip3_43_38">
<rect width="58" height="77" fill="white" transform="translate(177.235 24.6299) rotate(-31.2496)"/>
</clipPath>
<clipPath id="clip4_43_38">
<rect width="58" height="77" fill="white" transform="translate(105.116 366) rotate(25.4723)"/>
</clipPath>
<clipPath id="clip5_43_38">
<rect width="77" height="77" fill="white" transform="translate(184.159 216.422) rotate(-56.5714)"/>
</clipPath>
<clipPath id="clip6_43_38">
<rect width="77" height="77" fill="white" transform="translate(422.152 230.662) rotate(62.8091)"/>
</clipPath>
<clipPath id="clip7_43_38">
<rect width="33.8121" height="33.8121" fill="white" transform="translate(164.415 113.617) rotate(-32.57)"/>
</clipPath>
<clipPath id="clip8_43_38">
<rect width="77" height="77" fill="white" transform="translate(386 4)"/>
</clipPath>
<clipPath id="clip9_43_38">
<rect width="38.5003" height="38.5003" fill="white" transform="translate(225.71 321.39) rotate(125.561)"/>
</clipPath>
<clipPath id="clip10_43_38">
<rect width="48" height="48" fill="white" transform="translate(382.745 394.211) rotate(-33.4615)"/>
</clipPath>
</defs>
</svg>
